# xmcd
#
# Track frame offsets:
#	150
#	17522
#	40885
#	63887
#	85025
#	99837
#	131465
#	151047
#	173572
#	196645
#	232592
#
# Disc length: 3345 seconds
#
# Revision: 0
# Processed by: cddbd v1.4PL0 Copyright (c) Steve Scherf et al.
# Submitted via: dBpowerAMP V4.0
#
DISCID=650d0f0b
DTITLE=Chris Falson - A Tree By The Water
DYEAR=1900
DGENRE=Gospel
TTITLE0=Like A Tree
TTITLE1=To Be With You
TTITLE2=Everythings Alright
TTITLE3=More Of Jesus
TTITLE4=Holy Spirit
TTITLE5=The Throne Room
TTITLE6=Here I Am Lord
TTITLE7=Wash My sins Away
TTITLE8=Peace Of God
TTITLE9=I Will Wake In The Morning
TTITLE10=I Want To Be Like Jesus
EXTD=
EXTT0=
EXTT1=
EXTT2=
EXTT3=
EXTT4=
EXTT5=
EXTT6=
EXTT7=
EXTT8=
EXTT9=
EXTT10=
PLAYORDER=
